<svg width="26" height="26" viewBox="0 0 26 26" fill="none" xmlns="http://www.w3.org/2000/svg">
<path d="M13 2C10.8244 2 8.69767 2.64514 6.88873 3.85383C5.07979 5.06253 3.66989 6.78049 2.83733 8.79048C2.00477 10.8005 1.78693 13.0122 2.21137 15.146C2.6358 17.2798 3.68345 19.2398 5.22183 20.7782C6.76021 22.3165 8.72022 23.3642 10.854 23.7886C12.9878 24.2131 15.1995 23.9952 17.2095 23.1627C19.2195 22.3301 20.9375 20.9202 22.1462 19.1113C23.3549 17.3023 24 15.1756 24 13C23.9969 10.0836 22.837 7.28746 20.7748 5.22523C18.7125 3.16299 15.9164 2.00308 13 2ZM21.0935 17.5925H17.5375L16.5581 16.2429L17.8939 12.3527L19.4805 11.8355L22.2559 13.9646C22.1245 15.2415 21.7287 16.477 21.0935 17.5925ZM3.74731 13.9646L6.51741 11.8365L8.10395 12.3537L9.43981 16.2439L8.4625 17.5925H4.90654C4.2706 16.4772 3.874 15.2417 3.74202 13.9646H3.74731ZM4.805 8.60846L5.38779 10.5758L3.76741 11.8122C3.91107 10.6904 4.25954 9.60443 4.79549 8.60846H4.805ZM10.9904 15.5385L9.77827 12.0111L13 9.79625L16.2217 12.0111L15.0096 15.5385H10.9904ZM20.6228 10.5758L21.2056 8.60846C21.7415 9.60443 22.09 10.6904 22.2337 11.8122L20.6228 10.5758ZM19.967 6.83365L18.9612 10.2267L17.3672 10.7439L13.8462 8.32394V6.67606L16.923 4.56067C18.0819 5.10263 19.1175 5.87618 19.966 6.83365H19.967ZM14.9113 3.8901L13 5.20375L11.0888 3.8901C12.3493 3.62637 13.6507 3.62637 14.9113 3.8901ZM9.07702 4.56067L12.1538 6.67606V8.32394L8.63385 10.7439L7.03991 10.2267L6.03404 6.83365C6.88254 5.87618 7.91815 5.10263 9.07702 4.56067ZM6.14087 19.2848H8.29539L9.05375 21.4287C7.95251 20.9105 6.96304 20.1822 6.14087 19.2848ZM11.0962 22.1099L9.83962 18.5751L10.8159 17.2308H15.1841L16.1604 18.5751L14.9091 22.1099C13.6501 22.3738 12.3499 22.3738 11.0909 22.1099H11.0962ZM16.9515 21.4287L17.7099 19.2848H19.8644C19.0407 20.1828 18.0494 20.9111 16.9463 21.4287H16.9515Z" fill="white"/>
</svg>
