<svg width="32" height="32" viewBox="0 0 32 32" fill="none" xmlns="http://www.w3.org/2000/svg">
<path d="M16 11C16.7911 11 17.5645 10.7654 18.2223 10.3259C18.8801 9.88635 19.3927 9.26164 19.6955 8.53074C19.9983 7.79983 20.0775 6.99556 19.9231 6.21964C19.7688 5.44372 19.3878 4.73098 18.8284 4.17157C18.269 3.61216 17.5563 3.2312 16.7803 3.07686C16.0044 2.92252 15.2002 3.00173 14.4692 3.30448C13.7383 3.60723 13.1136 4.11992 12.6741 4.77772C12.2346 5.43552 12 6.20888 12 7C12 8.06087 12.4214 9.07828 13.1716 9.82843C13.9217 10.5786 14.9391 11 16 11ZM16 5C16.3955 5 16.7822 5.1173 17.1111 5.33706C17.44 5.55683 17.6964 5.86918 17.8477 6.23463C17.9991 6.60009 18.0387 7.00222 17.9616 7.39018C17.8844 7.77814 17.6939 8.13451 17.4142 8.41422C17.1345 8.69392 16.7781 8.8844 16.3902 8.96157C16.0022 9.03874 15.6001 8.99914 15.2346 8.84776C14.8692 8.69639 14.5568 8.44004 14.337 8.11114C14.1173 7.78224 14 7.39556 14 7C14 6.46957 14.2107 5.96086 14.5858 5.58579C14.9608 5.21072 15.4695 5 16 5ZM5.99998 12C5.99998 11.6044 6.11728 11.2178 6.33704 10.8889C6.55681 10.56 6.86916 10.3036 7.23461 10.1522C7.60007 10.0009 8.0022 9.96126 8.39016 10.0384C8.77812 10.1156 9.13449 10.3061 9.41419 10.5858C9.6939 10.8655 9.88438 11.2219 9.96155 11.6098C10.0387 11.9978 9.99912 12.3999 9.84774 12.7654C9.69637 13.1308 9.44002 13.4432 9.11112 13.6629C8.78222 13.8827 8.39554 14 7.99998 14C7.46955 14 6.96084 13.7893 6.58577 13.4142C6.21069 13.0391 5.99998 12.5304 5.99998 12ZM27.78 13.8263C27.6145 14.0334 27.3736 14.1663 27.1101 14.1959C26.8466 14.2254 26.5822 14.1491 26.375 13.9838C26.2312 13.8725 23.4112 11.7713 18.96 14.06C18.925 15.3319 18.7997 16.5996 18.585 17.8538L22.6387 21.2288C22.7934 21.3575 22.9056 21.53 22.9607 21.7236C23.0158 21.9171 23.0112 22.1228 22.9475 22.3138L20.9475 28.3138C20.8636 28.5654 20.6832 28.7734 20.446 28.892C20.2087 29.0106 19.9341 29.0301 19.6825 28.9463C19.4309 28.8624 19.2229 28.682 19.1042 28.4447C18.9856 28.2075 18.9661 27.9329 19.05 27.6813L20.8337 22.3288L18.0737 20.0288C17.8934 20.6368 17.6806 21.2347 17.4362 21.82C15.7175 25.9125 12.6387 28.6488 8.28623 29.955C8.03439 30.0243 7.76543 29.9923 7.53687 29.8659C7.30831 29.7394 7.13829 29.5286 7.06318 29.2784C6.98806 29.0282 7.01381 28.7586 7.13492 28.5272C7.25602 28.2958 7.46287 28.1209 7.71123 28.04C15.2962 25.7638 16.6037 19.0125 16.8887 15.3338C13.5 17.485 10.8212 18 9.04498 18C8.20826 18.0028 7.37704 17.8646 6.58623 17.5913C6.3747 17.4988 6.20166 17.336 6.09647 17.1306C5.99129 16.9251 5.96044 16.6895 6.00916 16.4639C6.05788 16.2382 6.18317 16.0364 6.36377 15.8926C6.54437 15.7488 6.76915 15.6719 6.99998 15.675C7.14291 15.6748 7.28414 15.706 7.41373 15.7663C7.41373 15.7663 10.7587 17.1013 16.4375 13.2413C22.9737 8.79875 27.4375 12.27 27.6262 12.42C27.7287 12.5022 27.814 12.6038 27.8771 12.719C27.9403 12.8342 27.9802 12.9607 27.9945 13.0913C28.0087 13.2219 27.9972 13.354 27.9604 13.4801C27.9235 13.6062 27.8623 13.7238 27.78 13.8263Z" fill="white"/>
</svg>
