<svg width="32" height="32" viewBox="0 0 32 32" fill="none" xmlns="http://www.w3.org/2000/svg">
<path d="M28 19H16.3625L4.7625 5.3525C4.59077 5.15028 4.34574 5.02455 4.08132 5.00299C3.81689 4.98142 3.55473 5.06578 3.3525 5.23751C3.15027 5.40923 3.02455 5.65426 3.00298 5.91869C2.98141 6.18311 3.06577 6.44527 3.2375 6.6475L19.9387 26.295C20.1265 26.5159 20.36 26.6934 20.6231 26.8151C20.8862 26.9369 21.1726 26.9999 21.4625 27H28C28.5304 27 29.0391 26.7893 29.4142 26.4142C29.7893 26.0391 30 25.5304 30 25V21C30 20.4696 29.7893 19.9609 29.4142 19.5858C29.0391 19.2107 28.5304 19 28 19ZM18.0625 21H24V25H21.4625L18.0625 21ZM28 25H26V21H28V25ZM14.0225 22.4438C13.8205 22.2722 13.5587 22.1878 13.2946 22.2091C13.0304 22.2305 12.7856 22.3558 12.6138 22.5575L10.5375 25H8V21H10.65C10.9152 21 11.1696 20.8946 11.3571 20.7071C11.5446 20.5196 11.65 20.2652 11.65 20C11.65 19.7348 11.5446 19.4804 11.3571 19.2929C11.1696 19.1054 10.9152 19 10.65 19H4C3.46957 19 2.96086 19.2107 2.58579 19.5858C2.21071 19.9609 2 20.4696 2 21V25C2 25.5304 2.21071 26.0391 2.58579 26.4142C2.96086 26.7893 3.46957 27 4 27H10.5375C10.8274 26.9999 11.1138 26.9369 11.3769 26.8151C11.64 26.6934 11.8735 26.5159 12.0612 26.295L14.1375 23.8538C14.2226 23.7536 14.2871 23.6377 14.3273 23.5127C14.3676 23.3876 14.3828 23.2559 14.3722 23.1249C14.3615 22.994 14.3251 22.8664 14.2651 22.7495C14.2051 22.6327 14.1227 22.5288 14.0225 22.4438ZM4 21H6V25H4V21ZM18.7375 15.3525L27.2375 5.3525C27.4092 5.15028 27.6543 5.02455 27.9187 5.00299C28.1831 4.98142 28.4453 5.06578 28.6475 5.23751C28.8497 5.40923 28.9755 5.65426 28.997 5.91869C29.0186 6.18311 28.9342 6.44527 28.7625 6.6475L20.2625 16.6475C20.1775 16.7476 20.0735 16.83 19.9567 16.89C19.8398 16.95 19.7122 16.9863 19.5813 16.997C19.3169 17.0186 19.0547 16.9342 18.8525 16.7625C18.6503 16.5908 18.5245 16.3458 18.503 16.0813C18.4814 15.8169 18.5658 15.5547 18.7375 15.3525Z" fill="white"/>
</svg>
