<svg width="28" height="28" viewBox="0 0 28 28" fill="none" xmlns="http://www.w3.org/2000/svg">
<g clip-path="url(#clip0_2255_2)">
<path d="M14.0002 25.6667C20.4435 25.6667 25.6668 20.4433 25.6668 14C25.6668 7.55668 20.4435 2.33334 14.0002 2.33334C7.55684 2.33334 2.3335 7.55668 2.3335 14C2.3335 20.4433 7.55684 25.6667 14.0002 25.6667Z" stroke="#C80037" stroke-width="3" stroke-linecap="round" stroke-linejoin="round"/>
<path d="M10.605 10.5C10.8793 9.72028 11.4207 9.06279 12.1333 8.64399C12.8459 8.22519 13.6837 8.0721 14.4984 8.21183C15.313 8.35157 16.0519 8.77511 16.5842 9.40745C17.1165 10.0398 17.4079 10.8401 17.4066 11.6667C17.4066 14 13.9066 15.1667 13.9066 15.1667" stroke="#C80037" stroke-width="3" stroke-linecap="round" stroke-linejoin="round"/>
<path d="M14 19.8333H14.0117" stroke="#C80037" stroke-width="3" stroke-linecap="round" stroke-linejoin="round"/>
</g>
<defs>
<clipPath id="clip0_2255_2">
<rect width="28" height="28" fill="white"/>
</clipPath>
</defs>
</svg>
